<svg width="40" height="40" viewBox="0 0 40 40" fill="none" xmlns="http://www.w3.org/2000/svg">
<g clip-path="url(#clip0_25816_7046)">
<path d="M39.5113 34.76C39.3202 37.6675 38.4307 39.2377 35.4158 39.4406C25.0576 40.2025 14.6575 40.2025 4.29934 39.4406C1.84362 39.2575 0.546111 37.8645 0.406808 35.2615C-0.116567 25.3903 -0.132509 15.4986 0.359045 5.62572C0.490389 2.99886 1.40383 0.533186 4.23368 0.401842C15.2307 -0.123531 25.7003 -0.123531 35.6426 0.401842C37.8755 0.515275 39.3143 2.24064 39.4635 4.41377C40.1621 14.5166 40.1781 24.6551 39.5113 34.76Z" fill="#3483E1"/>
<path d="M21.2602 8.44141C21.3997 8.44113 21.5348 8.48972 21.6423 8.57873C21.748 8.67122 21.8178 8.79806 21.8393 8.93693C22.6632 14.4295 25.8472 17.5499 31.3915 18.2981C31.4377 18.2985 31.4832 18.3087 31.5251 18.3282C31.567 18.3477 31.6042 18.3759 31.6342 18.411C31.6642 18.4461 31.6863 18.4872 31.699 18.5316C31.7117 18.576 31.7148 18.6226 31.7079 18.6683L31.5826 23.8683C31.5821 23.9201 31.5699 23.9712 31.5467 24.0175C31.5261 24.0669 31.4956 24.1116 31.4572 24.1489C31.4165 24.1844 31.3701 24.2127 31.3199 24.2325C31.2688 24.2444 31.2157 24.2444 31.1646 24.2325C22.5497 23.9399 16.6035 17.1578 15.8214 8.97275C15.8069 8.91392 15.8069 8.85248 15.8214 8.79365C15.8406 8.73647 15.871 8.6837 15.9109 8.63842C15.951 8.59483 15.9998 8.56023 16.0542 8.53693C16.1084 8.51123 16.1674 8.49701 16.2273 8.49515L21.2602 8.44141Z" fill="white"/>
<path d="M21.1815 27.4969L12.5905 18.9118C12.5311 18.8519 12.4604 18.8043 12.3825 18.7718C12.3046 18.7394 12.2211 18.7227 12.1367 18.7227C12.0523 18.7227 11.9688 18.7394 11.8909 18.7718C11.8131 18.8043 11.7424 18.8519 11.683 18.9118L8.43523 22.1655C8.3753 22.2249 8.32773 22.2956 8.29527 22.3735C8.2628 22.4513 8.24609 22.5349 8.24609 22.6192C8.24609 22.7036 8.2628 22.7872 8.29527 22.865C8.32773 22.9429 8.3753 23.0136 8.43523 23.073L17.0203 31.6581C17.0797 31.718 17.1504 31.7656 17.2282 31.798C17.3061 31.8305 17.3897 31.8472 17.474 31.8472C17.5584 31.8472 17.6419 31.8305 17.7198 31.798C17.7977 31.7656 17.8684 31.718 17.9278 31.6581L21.1815 28.4043C21.2414 28.3449 21.289 28.2743 21.3215 28.1964C21.3539 28.1185 21.3706 28.035 21.3706 27.9506C21.3706 27.8662 21.3539 27.7827 21.3215 27.7048C21.289 27.6269 21.2414 27.5563 21.1815 27.4969Z" fill="white"/>
</g>
<defs>
<clipPath id="clip0_25816_7046">
<rect width="40" height="40" fill="white"/>
</clipPath>
</defs>
</svg>
