<svg xmlns="http://www.w3.org/2000/svg" viewBox="0 0 16 16" fill="none">
  <path
    fill="#0E0A07"
    fill-rule="evenodd"
    clip-rule="evenodd"
    d="M5.2 2.5C3.4 2.8 2 4.3 2 6.2c0 .8.3 1.5.8 2.1-.2.4-.3.8-.3 1.2 0 1.4 1 2.6 2.3 2.9.3.7 1 1.2 1.8 1.3h.8c.8-.1 1.5-.6 1.8-1.3 1.3-.3 2.3-1.5 2.3-2.9 0-.4-.1-.8-.3-1.2.5-.6.8-1.3.8-2.1 0-1.9-1.4-3.4-3.2-3.7-.3-.9-1.1-1.5-2.1-1.5h-.7c-1 0-1.8.6-2.1 1.5ZM8 4c.9 0 1.6.5 1.9 1.2-.6.2-1 .7-1.2 1.3-.2-.6-.6-1.1-1.2-1.3C7.4 4.5 8.1 4 8 4Zm-2.4 2.8c.5 0 .9.3 1.1.7-.3.3-.4.7-.4 1.1v.1c-.5-.1-.9-.4-1.1-.8-.3-.5-.2-1.2.1-1.6.1-.1.2-.2.3-.3Zm4.8 0c.1.1.2.2.3.3.3.4.4 1.1.1 1.6-.2.4-.6.7-1.1.8v-.1c0-.4-.1-.8-.4-1.1.2-.4.6-.7 1.1-.7ZM8 9.2c.4 0 .7.2.9.5-.2.3-.5.5-.9.5s-.7-.2-.9-.5c.2-.3.5-.5.9-.5Zm-1.8 1.4c.3.3.7.5 1.1.5v.9c-.5 0-1-.3-1.2-.7 0-.2-.1-.4 0-.7h.1Zm3.6 0h.1c.1.3 0 .5 0 .7-.2.4-.7.7-1.2.7v-.9c.4 0 .8-.2 1.1-.5Z"
  />
</svg>
