<svg xmlns="http://www.w3.org/2000/svg" viewBox="0 0 88 96" fill="none" role="img" aria-label="LEVR mark">
  <path
    fill="currentColor"
    d="
      M 16.5 87
      C 4.2 68.8 4.2 28.2 16.5 12.8
      H 27.2
      A 3 3 0 0 1 29.8 14.5
      L 40.2 31.5
      A 3 3 0 0 1 42.5 33.2
      H 67.8
      A 3 3 0 0 1 70.8 36.2
      V 76.8
      A 3 3 0 0 1 67.8 79.8
      H 53.2
      A 3 3 0 0 1 50.2 76.8
      V 62.2
      A 3 3 0 0 0 47.2 59.2
      H 35.8
      A 3 3 0 0 0 32.8 62.2
      V 76.8
      A 3 3 0 0 1 29.8 79.8
      H 19.8
      A 3 3 0 0 1 16.8 82.8
      L 16.5 87
      Z
    "
  />
</svg>
